<svg xmlns="http://www.w3.org/2000/svg" width="314.506" height="442.615" viewBox="0 0 314.506 442.615">
    <defs>
        <style>
            .cls-1{fill:#fff}.cls-2{fill:#ffa47d;stroke:#fff;stroke-width:9px}.cls-2,.cls-6,.cls-8{stroke-miterlimit:10}.cls-3{fill:#dcf9ff}.cls-4,.cls-6{fill:#fdc6bb}.cls-5{fill:#262d34;font-size:30px;font-family:NotoSansKR-Bold,Noto Sans KR;font-weight:700}.cls-6{stroke:#fdc6bb}.cls-7{fill:#aec9ff}.cls-8{fill:#16284c;stroke:#16284c}.cls-9{filter:url(#패스_98)}
        </style>
        <filter id="패스_98" width="314.506" height="442.615" x="0" y="0" filterUnits="userSpaceOnUse">
            <feOffset dx="3" dy="3"/>
            <feGaussianBlur result="blur" stdDeviation="5"/>
            <feFlood flood-opacity=".161"/>
            <feComposite in2="blur" operator="in"/>
            <feComposite in="SourceGraphic"/>
        </filter>
    </defs>
    <g id="그룹_80" data-name="그룹 80" transform="translate(-768.494 -232)">
        <g class="cls-9" transform="translate(768.49 232)">
            <path id="패스_98-2" d="M28.268 0h227.97a28.07 28.07 0 0 1 28.268 27.867v356.881a28.07 28.07 0 0 1-28.268 27.867H28.268A28.07 28.07 0 0 1 0 384.748V27.867A28.07 28.07 0 0 1 28.268 0z" class="cls-1" data-name="패스 98" transform="translate(12 12)"/>
        </g>
        <g id="그룹_77" data-name="그룹 77" transform="translate(-855.709 -585.798)">
            <path id="사각형_9" d="M0 0h202.236v148.894H0z" class="cls-2" data-name="사각형 9" transform="translate(1677.269 905.551)"/>
            <path id="사각형_11" d="M0 0h206.716v21.12H0z" class="cls-3" data-name="사각형 11" transform="translate(1674.709 895.798)"/>
            <circle id="타원_4" cx="3.84" cy="3.84" r="3.84" class="cls-1" data-name="타원 4" transform="translate(1843.026 902.838)"/>
            <circle id="타원_5" cx="3.84" cy="3.84" r="3.84" class="cls-1" data-name="타원 5" transform="translate(1855.825 902.838)"/>
            <circle id="타원_6" cx="3.84" cy="3.84" r="3.84" class="cls-1" data-name="타원 6" transform="translate(1868.625 902.838)"/>
        </g>
        <path id="패스_97" d="M1757.663 990.706s0-13.661-4.554-20.492-4.994-19.062-4.994-19.062-.7-18.506 7.271-19.645 25.045 12.523 25.045 12.523l6.831 20.492-14.8 23.907-17.076 2.277" class="cls-4" data-name="패스 97" transform="translate(-840.099 -582.441)"/>
        <text id="선생님" class="cls-5" transform="translate(862 528)">
            <tspan x="19.1" y="35">선생님</tspan>
        </text>
        <g id="그룹_73" data-name="그룹 73" transform="translate(-847 -584.384)">
            <path id="패스_23" d="M1701.97 967.6a93.491 93.491 0 0 1-13.492-13.576c-1.929 5.664 2.422 11.257 5.265 16.415 3.771 6.839 5.121 14.942 6.468 22.827 1.748 10.241 3.664 20.657 8.27 29.727s12.413 16.731 21.7 17.975a3.027 3.027 0 0 0 2.69-.58 4.2 4.2 0 0 0 .716-2.987 101.88 101.88 0 0 0-16.252-53.405c-2.7-4.109-5.889-8.913-4.574-13.8.741-2.751 2.775-4.776 4.384-7.018s2.866-5.331 1.759-7.924c-1.38-.752-2.632 1.168-3.413 2.642a14.163 14.163 0 0 1-10.653 7.582" class="cls-4" data-name="패스 23" transform="translate(0 3.056)"/>
            <path id="패스_24" d="M1823.131 1023.127c-10.113-1.666-20.74-3.292-30.407.111-6.719 2.368-12.366 6.975-18.336 10.865-7.306 4.759-16.1 9.673-17.554 18.269a13.773 13.773 0 0 0 2.234 10.032c2.589 3.735 7.819 6.006 11.841 3.894 3.673-1.928 4.987-6.627 4.727-10.767-.128-2.061-.516-4.291.538-6.068a8.253 8.253 0 0 1 3.843-2.88 172.127 172.127 0 0 1 36.79-12.476c3.743-.812 7.834-1.687 10.24-4.665s1.325-8.7-2.492-9.018" class="cls-6" data-name="패스 24" transform="translate(7.593 10.4)"/>
            <path id="패스_25" d="M1734.877 1004.073c.483-8.031 5.854-15.171 12.6-19.552s14.751-6.381 22.674-7.778c3.891-.687 7.912-1.246 11.787-.441a24.487 24.487 0 0 1 11.144 6.2c7.188 6.5 11.9 15.216 17.905 22.817a82.453 82.453 0 0 0 21.737 19.255c-4.14 3.712-10.6 2.017-16.075 3-7.19 1.286-12.552 7.257-19.214 10.255-12.482 5.621-26.989.081-40.641 1.018-11.087.761-23.579 5.488-32.387-1.287-5.946-4.571-7.6-13.274-5.383-20.438s7.639-12.933 13.669-17.4" class="cls-7" data-name="패스 25" transform="translate(3.327 5.477)"/>
            <path id="패스_27" d="M1761.256 934.209c2.924 6.595 6.975 14.086 14.115 15.1 1.575.222 3.193.1 4.746.444 5.14 1.148 7.774 8.269 4.616 12.485-1.4 1.868-3.586 3.076-4.787 5.078-2.635 4.4.528 10.551-2.007 15.005 15.349 5.346 31.532 11.267 41.686 23.959.121-11.78-7.176-22.5-16.062-30.235-5.787-5.035-12.866-10.019-13.933-17.614-1.022-7.269 4-14.744 1.709-21.716-2.532-7.689-12.186-10.044-20.275-10.3-5.279-.168-10.937.156-15.182 3.3-5.049 3.74-6.775 10.476-7.387 16.731-.3 3.117-.431 6.323-1.643 9.211-1.444 3.436-4.259 6.063-6.664 8.911a44.854 44.854 0 0 0-8.891 39.78c4.042-11.972 17.267-20.087 29.772-18.268a14.967 14.967 0 0 0-.021-15.055c-1.8-3-4.61-5.254-6.737-8.034a21.919 21.919 0 0 1-.222-25.578" class="cls-8" data-name="패스 27" transform="translate(4.632)"/>
        </g>
    </g>
</svg>
